PathFileType	4	(X/Y/Z)	path1_04_0-899.trc
DataRate	CameraRate	NumFrames	NumMarkers	Units	OrigDataRate	OrigDataStartFrame	OrigNumFrames
30	30	9	22	m	30	449	899
Frame#	Time	Hip			RHip			RKnee			RAnkle			RBigToe			RSmallToe			RHeel			LHip			LKnee			LAnkle			LBigToe			LSmallToe			LHeel			Neck			Head			Nose			RShoulder			RElbow			RWrist			LShoulder			LElbow			LWrist		
		X1	Y1	Z1	X2	Y2	Z2	X3	Y3	Z3	X4	Y4	Z4	X5	Y5	Z5	X6	Y6	Z6	X7	Y7	Z7	X8	Y8	Z8	X9	Y9	Z9	X10	Y10	Z10	X11	Y11	Z11	X12	Y12	Z12	X13	Y13	Z13	X14	Y14	Z14	X15	Y15	Z15	X16	Y16	Z16	X17	Y17	Z17	X18	Y18	Z18	X19	Y19	Z19	X20	Y20	Z20	X21	Y21	Z21	X22	Y22	Z22
450	15.0	-1.6693921649995644	0.8165382789695447	0.28392288619296546	-1.6696410570688078	0.8011850272371553	0.3674755228931275	-1.6929681087119786	0.46708945220696707	0.33689991814006315	-1.7202240251807568	0.10770798486382376	0.3702490694200732	-1.564909432996204	0.035114298062110263	0.3693493101914629	-1.5870429134090511	0.02997269642803881	0.4305495196419781	-1.7549377294965025	0.05474109746375591	0.3579955490169269	-1.6641913261443397	0.7936508646021522	0.21311483368982567	-1.6859119604711115	0.45682299874609955	0.23521356731251825	-1.7339120852765624	0.09026750349202943	0.18404830053752433	-1.5623967172128872	0.016581472177659106	0.1396436994944364	-1.5932655021212059	0.012578061388637438	0.09727392157360919	-1.7803256298374737	0.03482333662995454	0.18071724462061223	-1.662438084166319	1.4452656575090554	0.24143490581669536	-1.5821390332037732	1.7143734597248323	0.2739468525676267	-1.5243551854765485	1.5742413455484192	0.2781738769579959	-1.7122069688639832	1.3522794259255793	0.3882714908367228	-1.7007984741134912	1.0538248506577657	0.4225654320599463	-1.6220202372538473	0.8475475551951923	0.4535416018469848	-1.6999666449982525	1.3465617444395857	0.06136359798580009	-1.6963074904783628	1.0361639633847861	0.13539281755689653	-1.5896021348396279	0.851488739496319	0.09003393641081456
451	15.033333333333331	-1.6690265254442926	0.8166068853701733	0.2839271613847602	-1.6697938240381462	0.8006181892126476	0.36621228765748814	-1.692724377261733	0.4669281981411043	0.33634192436400967	-1.720057956391482	0.11106709203193389	0.3659467083265356	-1.5647970052130131	0.035052425784820665	0.3688851044153899	-1.5886701780933645	0.03171682447285594	0.43007284841121696	-1.7549378493142547	0.05516581869508327	0.35842903362482675	-1.6641494332592632	0.7934249526065887	0.21193633634959852	-1.6855448264900772	0.4569333781334565	0.2347978233304686	-1.7333084836646695	0.09079696796580296	0.17958822773464106	-1.5620869651417817	0.016804881847899345	0.1392633935861032	-1.5931314504417693	0.012135893373487907	0.09679701957731779	-1.7803467163582845	0.034513422704196065	0.18003059712581426	-1.662133350557542	1.4455078254333749	0.24182908841312228	-1.58294052297994	1.7139655875329132	0.27484938442313955	-1.5242223245923878	1.5747431347029588	0.2793575585679776	-1.7116672739249665	1.3519411960480774	0.38814998214659824	-1.7003183768885877	1.053525965248188	0.4220118619313332	-1.6212874803850965	0.8475359268689816	0.45395205378770703	-1.7000331151470838	1.3464123007173279	0.06450521157249085	-1.6959885386155207	1.0363283890507253	0.13547350590479196	-1.5898296349871088	0.8516391301095659	0.08993779668577598
452	15.066666666666666	-1.668331139483707	0.8166879279705868	0.2839241146181688	-1.6694764695185416	0.7993738763241669	0.36477567014731604	-1.692376463671887	0.46633101349410916	0.33566032125459455	-1.7197470433451267	0.11432025276487358	0.3614779147206596	-1.5644162773345744	0.03466847934984166	0.3686683817953622	-1.5900223676251184	0.03355673086544349	0.4297819528120162	-1.7548740537009264	0.05545668879764944	0.35889110135590396	-1.664204308333714	0.7924434254299724	0.21084214727276596	-1.685601080156874	0.45660216428752637	0.2346566580204061	-1.732417490745007	0.09112351645783906	0.17791034304816455	-1.5616950351509762	0.016744025983213295	0.1391831766880822	-1.593286987674049	0.011686700062123502	0.09617796056182455	-1.7803211140097686	0.03397948590349997	0.17959583960963024	-1.66165757156039	1.445979004344195	0.24229795557077544	-1.584535395153584	1.7129586000105057	0.27625058195004326	-1.5240039228228826	1.5755890278714135	0.281616341397797	-1.7109189151826927	1.3514633143864052	0.38809488032957595	-1.699529468645885	1.0531040590250627	0.4216367663058111	-1.6183915895197127	0.8482365433104294	0.45826957692012027	-1.7006251653716493	1.3460731684766174	0.06930065705005643	-1.6958279061050625	1.0367263690155037	0.13575291988245386	-1.589960683370245	0.8520877539252237	0.08971541413782229
453	15.1	-1.6673595932856575	0.8167678624798808	0.2838475523487879	-1.668694975316828	0.7975163129013332	0.363396382768995	-1.6919632404461147	0.4652582902589912	0.334893474131711	-1.7193828892089302	0.11657838838551975	0.3579775106193922	-1.5638425605966024	0.03384923126338555	0.36850853764004593	-1.5906838001645298	0.03492776078391149	0.429713998136647	-1.7547397149565742	0.05559706084364004	0.35934338134882043	-1.6643672485306553	0.7906961722405851	0.20999050319485352	-1.6861409806993428	0.4557953790209209	0.2348325319322856	-1.7308583275287954	0.09136549488258584	0.17876271012656558	-1.561281423587365	0.016322994591653987	0.13941354403986783	-1.5936295426597016	0.011319181447171785	0.09558649339448563	-1.7801945336074843	0.03339192961757595	0.1794859976398199	-1.661003439064485	1.4466470448217894	0.24281627484244325	-1.5869256272725067	1.711424859537795	0.27792458374802853	-1.5236979382764526	1.5768058706527133	0.28492637876577137	-1.7099938678369315	1.3508450281891196	0.38803410391376575	-1.6984852599675198	1.0526145818465749	0.42141474935963186	-1.6141396493009361	0.8493951209514021	0.4651672738481019	-1.7017402578115093	1.345544471762013	0.07543435229215763	-1.6958982508098575	1.0371987175490103	0.13616513667578933	-1.589963281995387	0.8527226688560373	0.0895062483071625
454	15.133333333333333	-1.666291016157825	0.8168286797957235	0.28366263687681564	-1.6676293213907623	0.7953861853400296	0.36242160709604143	-1.6915485195172224	0.46388294900927024	0.3341953869751385	-1.7190750572799778	0.11764091995909345	0.35567887410606136	-1.5632087475596306	0.0327019513058105	0.36823909050575016	-1.590735380770229	0.03559805760078478	0.42970730791113215	-1.7545916094432763	0.05556186055038125	0.3596174427316398	-1.6646361215187855	0.7884781158061642	0.20956238937165786	-1.6870438055716277	0.45467024249915927	0.23529326670619666	-1.7284004331470477	0.09171475775958007	0.1815098122651577	-1.5608928066094656	0.015533727082893602	0.1399233776344538	-1.5938856181406313	0.01116049855085497	0.09527010927693551	-1.7799409412655223	0.03295406223550072	0.1796994906365022	-1.6602371849755517	1.4473978872725013	0.24332565043630294	-1.5897793058964917	1.7096463897704752	0.279606185472281	-1.523311146242638	1.57821858684835	0.2887287177255108	-1.7089386284027774	1.350177264576927	0.3880209693813004	-1.6973548117441828	1.052152392113607	0.42126455559943565	-1.6098735903280001	0.8506089621347	0.4723302599862251	-1.7031444408524579	1.344993984636869	0.08112414165222488	-1.6962498868453608	1.0375326039105754	0.13660436465837303	-1.5898268203064905	0.8533355318481316	0.08944892238513187
455	15.166666666666666	-1.665330366710955	0.8168173821502107	0.2834086565960903	-1.6665786808422727	0.7932580043453347	0.36207713282414145	-1.6912550513823845	0.46243882156361105	0.33370888513932123	-1.7189335059198247	0.11776627750940935	0.3542730942983012	-1.5626753345360662	0.03148984955605713	0.36786275315393663	-1.5905186922667605	0.035677201635933804	0.42961232465992855	-1.754560820199636	0.055308081004159584	0.359480037724679	-1.6649623167202756	0.7861133677426644	0.2096507050215911	-1.6881180803764246	0.4533829396772772	0.23592832997625796	-1.7251860403791492	0.09223510019616432	0.18526917124110415	-1.5605078637694345	0.014386101202782423	0.1407433868786631	-1.5936277891401955	0.011356077886321163	0.09560655262441814	-1.779578712813455	0.03275374977323825	0.1801822118232389	-1.6594592078759633	1.4480863366581644	0.2437246302981173	-1.5926582329000616	1.7079099525734431	0.2809795152750419	-1.5228482791667313	1.57957725729324	0.2921094451732215	-1.7078446934086844	1.3496007695158423	0.38815513322288997	-1.696354589553595	1.0518118616498058	0.4211094383668113	-1.6065668175889716	0.8516111758735043	0.4780182924160999	-1.7044511719957927	1.3447997133269465	0.0832956678412411	-1.6968676898007617	1.0375972271385934	0.1369724794969582	-1.5895548471566945	0.8537407289221857	0.08957784279951624
456	15.2	-1.6646435257245336	0.8166851066647467	0.28315348213075925	-1.665814280393045	0.7913051968930273	0.36233581942166343	-1.6911932259459843	0.4611295347857953	0.33349237381128904	-1.7190283486710778	0.1173500211759384	0.3534060629051438	-1.5623785545754387	0.030491563824294063	0.3675419787232911	-1.590370211027997	0.03542654676055294	0.42945958734073386	-1.754778027619131	0.05484084972429353	0.35886116733121054	-1.6652427925718878	0.7838777875670793	0.2101848755031494	-1.6891679268912223	0.4520156225428725	0.23654142194579886	-1.7215623440997134	0.09285076181298615	0.189239415619732	-1.5600437165768728	0.012967351584927313	0.14186701242577002	-1.5923590668204368	0.0120471624793643	0.09702618062242443	-1.779172500185362	0.03274730313200892	0.18085271516667895	-1.658764029351988	1.4485849099189156	0.24391262092550586	-1.5951462426126095	1.7064429260585379	0.28173670915879295	-1.5223328650294734	1.5807113017756567	0.29438367992071734	-1.7068504804945277	1.3492244699847704	0.38845366326062275	-1.6956528415006111	1.0516336376306574	0.4209199970765429	-1.6044684708085142	0.8523375930027061	0.48170732095659125	-1.7053541365887332	1.345211398231609	0.08029226776845558	-1.6976625528350056	1.037408912754144	0.1372136635873431	-1.5891754055503298	0.8538891951823168	0.08982898771802594
457	15.233333333333333	-1.6643582993939772	0.8164465687253829	0.28293122043751595	-1.6654823811757322	0.7898289482596117	0.3629925599496049	-1.6913373008859514	0.4601822964267969	0.3335311836310213	-1.7193421322219944	0.11671856395946331	0.35295775461356915	-1.5623804884486405	0.029894487177529936	0.36747116977457117	-1.5905166449964665	0.03504032599127658	0.42944741753122484	-1.7552588331375605	0.05430930382717908	0.35794289836472226	-1.6653736649995337	0.7821453860940877	0.2109592159152966	-1.6899595277766437	0.4507169513321599	0.2368455582029781	-1.717918655661549	0.09347071595503481	0.1928783352580243	-1.5594248606854688	0.011507668210314202	0.1431386844774881	-1.5896546948243782	0.013321409332003277	0.09983795135165596	-1.7788163992305548	0.032871434737193145	0.1815829516853242	-1.6582354966110202	1.4488105961120632	0.24384998129135455	-1.5968114952435584	1.705490362395054	0.28176685872551627	-1.5218382518500129	1.581531728176459	0.295479266067502	-1.7060866034337114	1.349099202153983	0.3888375732667403	-1.695333813273493	1.0516147768582258	0.42072765017420427	-1.6034056269452117	0.852796745978895	0.48359851082599514	-1.7057641308595983	1.3460201395471891	0.07388883901404683	-1.6984620922820353	1.0370891035454302	0.13729549322206724	-1.5887538610477892	0.8538544995169233	0.09011225458406957
458	15.266666666666667	-1.6645440334764254	0.8161838564414211	0.2827271276232184	-1.6655980893859157	0.7892285838105693	0.36380072250887097	-1.6915207619585269	0.45984304294982864	0.33376641761938497	-1.719756492360056	0.11601031105850912	0.35308307799051325	-1.5626409315657868	0.029772298016138735	0.36775077317304106	-1.591009448226473	0.034562457607765204	0.42981117180759426	-1.7558710392910684	0.053978574752877026	0.35704058217209705	-1.6653319755812908	0.7813327284279074	0.21174816285582132	-1.6902047177802249	0.4497326854120422	0.23652806906080434	-1.7147283034604412	0.09402302838032778	0.19577808604850422	-1.5586432562964307	0.010305298371123935	0.14431971666384324	-1.585469253294753	0.01511897533575886	0.10396344633439784	-1.7785875580110835	0.03308106291115621	0.18220972065479077	-1.6579313599424863	1.448760736049549	0.24358902692975587	-1.5972420651282249	1.7052813884395952	0.2811524062407834	-1.5214739025864847	1.5819414138880383	0.29569959126285267	-1.7056199176291726	1.349228403362871	0.38920712229733356	-1.6954153608907634	1.0517588953704087	0.4206055481376463	-1.603153177660728	0.8530057927356173	0.484004055574768	-1.7057088766159128	1.3468147205914898	0.06723627856558102	-1.6990448618991987	1.0367899105460014	0.1372133142330933	-1.588400480078441	0.8537423201904855	0.09034808090146161
